:FULLY-SPECIFIED
:DEGREES
126
root -0.567874014377594 -0.567874014377594 -0.567874014377594 -0.5678755879732001 -0.5678755879732001 -0.5678755879732001
lhipjoint -9.671654586443837e-08 -1.5341245206083327e-07 1.0672170578144923e-06
lfemur -17.284509157032826 -3.4458447369800074 -14.640363636855177
ltibia 19.751322475789433 -1.4294766382569474e-06 3.21548582297472e-07
lfoot -14.88293097503901 -2.8267873092427565e-08 12.825251110208043
ltoes -52.23288130024286 -1.064421019471799e-06 6.823300444794825e-07
rhipjoint 1.1005675908711953e-07 6.870210827458292e-07 -1.494104084495789e-06
rfemur -6.794413066027047 5.411135834559385 10.115890943835112
rtibia -0.6346885517951177 -2.983532041165578e-08 -8.597837241554372e-07
rfoot -13.601895699030914 6.022198616067764e-07 -18.52388796306666
rtoes -4.989739629752632 -3.766390462684139e-07 -4.346818792057524e-07
lowerback 26.733631911449415 0.5630671347975111 -1.7689098187282881
upperback 2.373189781369127 0.4032133874625327 1.5187203095958384
thorax -12.199032046344593 0.34258865506992603 2.5901306766738954
lowerneck -11.457395592112624 -2.029057957114028 -1.9248847656666397
upperneck 23.5797988923852 -3.0151462414105206 2.3060364286666197
head 9.370881229926802 -1.331763944747426 0.7745436119620046
lclavicle -1.4085775951116125e-07 5.4855408257763046e-08 -1.0938974842598547e-06
lhumerus 65.09511105461735 25.38755701284352 69.0793857937284
lradius 22.539885515777833 -1.3649291893294543e-07 1.3117812554913257e-06
lwrist -1.5783947884418106e-06 -57.02509911627472 3.805887099607302e-07
lhand -4.562975323145072 2.6246558075710764e-07 -26.656099019086014
lfingers 7.125022823272814 9.845282338726802e-08 3.18924141240953e-07
lthumb 21.213298854421275 -1.2803152392500461e-07 2.20318914769186
rclavicle 1.398304276268298e-07 4.3880174074018323e-07 -1.3740421654916584e-06
rhumerus 58.100266514283106 -21.532511160376405 -45.65073728012829
rradius 31.380580141571564 6.40754037238891e-07 -2.846429727955664e-06
rwrist 3.9863619500085226e-07 40.560849574783525 8.911230270982072e-07
rhand -6.972260092956778 2.0321462048512455e-07 -36.68780446630613
rfingers 7.125022396385991 5.1024341088409163e-08 -3.1892353057445414e-07
rthumb 18.897492480477187 1.5447771905696147e-06 -65.78980959509936
127
root -0.567874014377594 -0.567874014377594 -0.567874014377594 -0.5678755879732001 -0.5678755879732001 -0.5678755879732001
lhipjoint -9.671654586443837e-08 -1.5341245206083327e-07 1.0672170578144923e-06
lfemur -16.828302039347456 -3.578635994162926 -14.522467741591587
ltibia 19.630752561465783 -1.036100749921549e-06 -4.917246439734891e-07
lfoot -15.325144742662316 2.561686931543087e-07 13.278968623940942
ltoes -52.22627309222087 -1.4915767394125856e-06 8.912956421618796e-07
rhipjoint 1.1005675908711953e-07 6.870210827458292e-07 -1.494104084495789e-06
rfemur -6.782720635941632 5.69251230760723 10.261127232572617
rtibia -0.30345169780617937 -9.51766993987359e-09 -2.915907485097636e-09
rfoot -13.873802968568183 9.572704222526638e-07 -18.220897356390306
rtoes -4.837795668363351 4.833537802740013e-07 -5.95362585713541e-07
lowerback 26.078558713437246 0.6166704594037712 -1.7096651847544206
upperback 2.383925984970741 0.4657915272773367 1.327529334183724
thorax -11.980094601368066 0.3603471469119592 2.3423866954294277
lowerneck -11.457395592112624 -2.029057957114028 -1.9248847656666397
upperneck 23.5797988923852 -3.0151462414105206 2.3060364286666197
head 9.370881229926802 -1.331763944747426 0.7745436119620046
lclavicle -1.4085775951116125e-07 5.4855408257763046e-08 -1.0938974842598547e-06
lhumerus 59.80767720300289 28.818169787644166 62.86131817713219
lradius 23.083160469907938 7.369417459153331e-07 1.5719141920006105e-06
lwrist -1.5364249013094667e-06 -56.457547962287094 3.704672435201276e-07
lhand -4.562975323145072 2.6246558075710764e-07 -26.656099019086014
lfingers 7.125022823272814 9.845282338726802e-08 3.18924141240953e-07
lthumb 21.213298854421275 -1.2803152392500461e-07 2.20318914769186
rclavicle 1.398304276268298e-07 4.3880174074018323e-07 -1.3740421654916584e-06
rhumerus 52.758040885146805 -24.78547925260148 -41.74957569793254
rradius 31.564909871797283 6.369723831670683e-07 -2.887796683698152e-06
rwrist 3.878943168418646e-07 39.90714241460536 8.671093812532836e-07
rhand -6.972260092956778 2.0321462048512455e-07 -36.68780446630613
rfingers 7.125022396385991 5.1024341088409163e-08 -3.1892353057445414e-07
rthumb 18.897492480477187 1.5447771905696147e-06 -65.78980959509936
128
root -0.567874014377594 -0.567874014377594 -0.567874014377594 -0.5678755879732001 -0.5678755879732001 -0.5678755879732001
lhipjoint -9.671654586443837e-08 -1.5341245206083327e-07 1.0672170578144923e-06
lfemur -16.44683426665495 -3.645366728910539 -14.423609291092115
ltibia 19.64492008135168 -7.607097002722231e-07 4.35569381184068e-07
lfoot -15.820341995224702 -5.020823620158307e-07 13.64721144285301
ltoes -52.2955551160669 6.379301117927507e-07 9.100978601056942e-07
rhipjoint 1.1005675908711953e-07 6.870210827458292e-07 -1.494104084495789e-06
rfemur -6.800014674920104 5.8964335816934845 10.424368753735923
rtibia 0.10216600295558378 2.591484148909659e-09 9.926924632956226e-10
rfoot -14.216664804524482 4.397148907114501e-07 -17.83090892270821
rtoes -4.7439898503023965 -1.2160953111214312e-06 -5.020201758106988e-07
lowerback 25.430226912135883 0.6639762428735738 -1.6318552428428121
upperback 2.2888096243627896 0.5318121357946799 1.1789590593576067
thorax -11.837873841149122 0.3799771105865758 2.1208559130024107
lowerneck -11.457395592112624 -2.029057957114028 -1.9248847656666397
upperneck 23.5797988923852 -3.0151462414105206 2.3060364286666197
head 9.370881229926802 -1.331763944747426 0.7745436119620046
lclavicle -1.4085775951116125e-07 5.4855408257763046e-08 -1.0938974842598547e-06
lhumerus 53.71188363292825 31.755564357194434 56.022618591413604
lradius 23.585174251261996 -9.53224349586843e-07 1.2986991506421546e-06
lwrist -1.5150954400601987e-06 -56.16102212966016 3.653295535987536e-07
lhand -4.562975323145072 2.6246558075710764e-07 -26.656099019086014
lfingers 7.125022823272814 9.845282338726802e-08 3.18924141240953e-07
lthumb 21.213298854421275 -1.2803152392500461e-07 2.20318914769186
rclavicle 1.398304276268298e-07 4.3880174074018323e-07 -1.3740421654916584e-06
rhumerus 46.75409628393591 -27.505373278221864 -37.49057367493066
rradius 31.770696641300596 -1.1961112499468597e-06 -2.9929945730094936e-06
rwrist 3.789801889583456e-07 39.351192336923006 8.471835369516015e-07
rhand -6.972260092956778 2.0321462048512455e-07 -36.68780446630613
rfingers 7.125022396385991 5.1024341088409163e-08 -3.1892353057445414e-07
rthumb 18.897492480477187 1.5447771905696147e-06 -65.78980959509936
129
root -0.567874014377594 -0.567874014377594 -0.567874014377594 -0.5678755879732001 -0.5678755879732001 -0.5678755879732001
lhipjoint -9.671654586443837e-08 -1.5341245206083327e-07 1.0672170578144923e-06
lfemur -16.12841255509625 -3.694843338597642 -14.338097030230847
ltibia 19.7354320406854 -1.2767194313493707e-06 -5.31749761862524e-07
lfoot -16.333412145297718 -6.15734725448126e-07 13.94333941696079
ltoes -52.40888844496492 -1.050572324611083e-06 -3.739499763407676e-07
rhipjoint 1.1005675908711953e-07 6.870210827458292e-07 -1.494104084495789e-06
rfemur -6.820176966463158 6.020101840579382 10.58829073249529
rtibia 0.5252006193998133 2.3151906359527956e-08 -8.48596873674294e-07
rfoot -14.606820577841244 1.1905948959073293e-06 -17.39044197596514
rtoes -4.6506070770831585 1.3554186692765046e-06 -5.315412192531698e-07
lowerback 24.779405506882046 0.7067469941778994 -1.5612585143032662
upperback 2.1013339516940452 0.5964940272347007 1.0688290891803212
thorax -11.75006663672673 0.40056330074499424 1.9374512465224054
lowerneck -11.457395592112624 -2.029057957114028 -1.9248847656666397
upperneck 23.5797988923852 -3.0151462414105206 2.3060364286666197
head 9.370881229926802 -1.331763944747426 0.7745436119620046
lclavicle -1.4085775951116125e-07 5.4855408257763046e-08 -1.0938974842598547e-06
lhumerus 46.9306191079403 34.13206379210325 48.82585999883544
lradius 23.97871609085979 1.6211909073470866e-06 1.9018630008783892e-06
lwrist -1.5266570871050054e-06 -56.32247755635551 3.6811228450065963e-07
lhand -4.562975323145072 2.6246558075710764e-07 -26.656099019086014
lfingers 7.125022823272814 9.845282338726802e-08 3.18924141240953e-07
lthumb 21.213298854421275 -1.2803152392500461e-07 2.20318914769186
rclavicle 1.398304276268298e-07 4.3880174074018323e-07 -1.3740421654916584e-06
rhumerus 40.21044037979436 -29.63365680850325 -33.02329527847299
rradius 31.959138145406662 1.4831375319541027e-06 -2.7316879354894364e-06
rwrist 3.759215131322757e-07 39.15744719092642 8.403411714987129e-07
rhand -6.972260092956778 2.0321462048512455e-07 -36.68780446630613
rfingers 7.125022396385991 5.1024341088409163e-08 -3.1892353057445414e-07
rthumb 18.897492480477187 1.5447771905696147e-06 -65.78980959509936
